<?xml version="1.0" encoding="UTF-8"?>
<svg id="Layer_2" data-name="Layer 2" xmlns="http://www.w3.org/2000/svg" viewBox="0 0 25.52 30.66">
  <defs>
    <style>
      .cls-1 {
        fill: #fefdf9;
        stroke: #fefdf9;
        stroke-width: .5px;
      }
    </style>
  </defs>
  <g id="Layer_1-2" data-name="Layer 1">
    <path class="cls-1" d="m14.23,9.69c-.12,0-.23-.05-.31-.13-.08-.08-.13-.19-.13-.31v-4.51c0-1.29-.69-2.48-1.8-3.12-1.12-.64-2.49-.64-3.61,0-1.12.64-1.8,1.84-1.8,3.12v4.51c0,.16-.08.3-.22.38-.14.08-.3.08-.44,0-.14-.08-.22-.22-.22-.38v-4.51c0-1.6.85-3.08,2.24-3.88C9.33.05,11.04.05,12.42.85c1.39.8,2.24,2.28,2.24,3.88v4.51c0,.12-.05.23-.13.31-.08.08-.19.13-.31.13Z"/>
    <path class="cls-1" d="m19.44,9.69c-.12,0-.23-.05-.31-.13-.08-.08-.13-.19-.13-.31v-4.51c0-1.29-.69-2.48-1.8-3.12-1.12-.64-2.49-.64-3.61,0-1.12.64-1.8,1.84-1.8,3.12v4.51c0,.16-.08.3-.22.38-.14.08-.3.08-.44,0-.14-.08-.22-.22-.22-.38v-4.51c0-1.6.85-3.08,2.24-3.88,1.39-.8,3.1-.8,4.48,0,1.39.8,2.24,2.28,2.24,3.88v4.51c0,.12-.05.23-.13.31-.08.08-.19.13-.31.13Z"/>
    <path class="cls-1" d="m12.83,25.26c-.25,0-.34-.14-.52-.42-.09-.14-.22-.34-.37-.58-.3-.48-.7-1.11-1.09-1.75-.79-1.27-1.57-2.54-1.57-2.54-.04-.07-.08-.13-.11-.19h0c-.15-.28-.27-.57-.35-.88-.34-1.25-.08-2.59.7-3.62.79-1.03,2.01-1.64,3.31-1.64,1.46,0,2.82.77,3.57,2.03.75,1.26.78,2.82.09,4.11h0s-.1.19-.1.19h0s-.79,1.28-1.57,2.55c-.39.64-.79,1.27-1.09,1.75-.15.24-.28.44-.37.58-.18.28-.27.42-.52.42h0Zm0-10.74h0c-1.02,0-1.99.48-2.61,1.29-.62.81-.83,1.87-.55,2.86.06.24.16.47.27.69.03.05.06.1.09.16.91,1.47,2.19,3.53,2.8,4.5.61-.97,1.89-3.03,2.8-4.5l.1-.16h0c.12-.22.21-.45.27-.68.08-.28.12-.58.12-.87,0-.87-.34-1.71-.96-2.32-.62-.62-1.45-.96-2.32-.96h0Z"/>
    <path class="cls-1" d="m12.8,19.96c-.62,0-1.2-.31-1.55-.83-.35-.52-.41-1.17-.17-1.74.24-.57.75-.99,1.36-1.11.61-.12,1.24.07,1.68.51.35.35.54.82.54,1.31s-.2.97-.54,1.32-.82.54-1.31.54Zm0-2.84c-.31,0-.59.14-.78.38-.19.24-.25.56-.17.85.08.3.29.54.57.66.28.12.6.1.87-.05.27-.15.45-.42.49-.72.04-.3-.06-.61-.27-.82-.18-.19-.43-.29-.69-.29h0Z"/>
    <path class="cls-1" d="m19.22,30.41H6.3c-1.6,0-3.14-.64-4.27-1.77-1.13-1.13-1.77-2.67-1.77-4.27v-14.99c0-.12.05-.23.13-.31.08-.08.19-.13.31-.13h24.15c.12,0,.23.05.31.13.08.08.13.19.13.31v14.99c0,1.6-.64,3.14-1.77,4.27-1.13,1.13-2.67,1.77-4.27,1.77h0ZM1.13,9.82v14.55c0,1.37.55,2.69,1.52,3.66.97.97,2.28,1.52,3.66,1.52h12.93c1.37,0,2.69-.55,3.66-1.52.97-.97,1.52-2.28,1.52-3.66v-14.55H1.13Z"/>
  </g>
</svg>