<?xml version="1.0" encoding="UTF-8"?>
<svg id="Layer_1" data-name="Layer 1" xmlns="http://www.w3.org/2000/svg" viewBox="0 0 222.59 162.94">
  <defs>
    <style>
      .cls-1 {
        fill: #7aa190;
      }
    </style>
  </defs>
  <path class="cls-1" d="m157.44,32.64H37.94l18.32-14.88c4.29-3.48,4.94-9.78,1.46-14.07-3.48-4.29-9.78-4.94-14.07-1.46L3.7,34.68c-.22.18-.43.37-.64.58-.04.04-.09.08-.13.12-.05.05-.09.1-.13.15-.43.45-.82.93-1.15,1.43-.03.05-.06.11-.1.16-.14.22-.28.45-.4.68-.07.13-.12.26-.18.39-.08.16-.16.32-.22.49-.07.17-.13.35-.19.53-.04.13-.09.25-.13.38-.06.19-.1.39-.15.59-.03.12-.06.23-.08.35-.04.19-.06.38-.09.58-.02.13-.04.25-.05.38-.02.17-.02.35-.03.52,0,.15-.02.3-.02.45,0,.15.01.3.02.45,0,.17.01.35.03.52.01.13.04.26.05.38.03.19.05.38.09.58.02.12.06.23.08.35.05.2.09.39.15.59.04.13.09.25.13.38.06.18.12.35.19.53.07.17.15.33.22.49.06.13.12.26.18.39.12.23.26.46.4.68.03.05.06.11.1.16.38.58.83,1.13,1.34,1.63.1.1.21.19.32.28.13.12.26.25.4.36l39.96,32.45c1.85,1.51,4.08,2.24,6.3,2.24,2.91,0,5.79-1.26,7.77-3.7,3.48-4.29,2.83-10.58-1.46-14.07l-17.85-14.49h119.03c24.9,0,45.15,20.25,45.15,45.15s-20.25,45.15-45.15,45.15h-68.17c-5.52,0-10,4.48-10,10s4.48,10,10,10h68.17c35.92,0,65.15-29.23,65.15-65.15s-29.23-65.15-65.15-65.15Z"/>
</svg>