<svg width="19" height="18" viewBox="0 0 19 18" fill="blue" xmlns="http://www.w3.org/2000/svg">
<path d="M1.72389 15.5948C2.05665 17.0096 3.32584 18 4.80781 18H14.1945C15.6765 18 16.9469 17.0096 17.2784 15.5948L18.9509 8.48855C19.0808 7.93331 18.9509 7.35629 18.5872 6.91259C18.226 6.46526 17.6817 6.21068 17.0991 6.21068H15.246L12.9402 0.397921C12.8796 0.242748 12.7596 0.121521 12.6049 0.053624C12.4503 -0.0142732 12.2784 -0.0179012 12.12 0.0439257C11.9617 0.103329 11.838 0.220918 11.7687 0.372457C11.6994 0.523995 11.6957 0.692484 11.7588 0.847657L13.8865 6.20731H5.11101L7.23872 0.847657C7.29934 0.692484 7.29562 0.525177 7.22882 0.372457C7.16202 0.220921 7.03585 0.105753 6.87997 0.0439257C6.72163 -0.0154774 6.55091 -0.0118401 6.39507 0.053624C6.24044 0.121512 6.11921 0.242742 6.05983 0.3955L3.75403 6.20826H1.90094C1.31832 6.20826 0.776477 6.46526 0.412802 6.91017C0.0491276 7.3575 -0.0807741 7.93092 0.0491278 8.48613L1.72158 15.5924L1.72389 15.5948ZM1.40721 7.68476C1.5272 7.53565 1.70781 7.452 1.90078 7.452H17.1014C17.2944 7.452 17.475 7.53565 17.595 7.68476C17.715 7.83387 17.7595 8.02663 17.715 8.20967L16.0425 15.316C15.8434 16.1658 15.0801 16.7586 14.1894 16.7586H4.80275C3.91332 16.7586 3.15256 16.1657 2.94966 15.316L1.27721 8.20967C1.23268 8.02298 1.27721 7.83388 1.39721 7.68476H1.40721Z"/>
</svg>
