<?xml version="1.0" encoding="UTF-8"?>
<svg id="Layer_2" data-name="Layer 2" xmlns="http://www.w3.org/2000/svg" viewBox="0 0 38.25 38.25">
  <defs>
    <style>
      .cls-1 {
        fill: #fefdf9;
        stroke: #fefdf9;
        stroke-width: .25px;
      }
    </style>
  </defs>
  <g id="Layer_1-2" data-name="Layer 1">
    <g>
      <path class="cls-1" d="m19.49,22.9c-.04-.12-.13-.21-.25-.26-.11-.05-.24-.06-.36-.01,0,0-.01,0-.02,0,.16-1.18-.2-2.38-1.05-3.29-.98-1.04-2.39-1.48-3.76-1.19-.69-1.22-1.95-1.99-3.38-2.04-1.42-.05-2.73.65-3.5,1.82-1.35-.38-2.79-.03-3.83.95-1.04.98-1.48,2.39-1.19,3.76-1.22.69-1.99,1.95-2.04,3.38-.04,1.24.48,2.38,1.39,3.16,0,0-.01,0-.02,0-.24.09-.37.36-.27.61,1.48,3.91,5.2,6.32,9.15,6.32,1.14,0,2.31-.2,3.44-.63,5.04-1.9,7.59-7.55,5.68-12.59ZM1.07,26.06c.04-1.22.73-2.23,1.84-2.72.22-.1.33-.35.26-.57-.37-1.16-.06-2.35.83-3.18.89-.83,2.09-1.07,3.23-.63.23.09.48,0,.59-.22.56-1.08,1.62-1.69,2.83-1.66,1.22.04,2.23.73,2.72,1.84.1.22.35.33.58.26,1.16-.37,2.35-.06,3.18.83.81.86,1.05,2.03.65,3.14-3.39,1.79-5.38,5.39-5.2,9.12-.95-1.2-2.18-2.17-3.62-2.82-2.01-.91-4.21-1.1-6.31-.58-1.03-.57-1.62-1.6-1.58-2.79Zm1.22,3.86c2.08-.66,4.29-.53,6.29.37,2,.9,3.56,2.48,4.44,4.47-4.28,1.36-8.92-.74-10.73-4.85Zm11.64,4.5c-1.36-4.28.74-8.92,4.85-10.73,1.36,4.28-.74,8.92-4.85,10.73Z"/>
      <path class="cls-1" d="m4.98,24.57c-.1-1.03.27-2.02.95-2.52.2-.15.26-.45.13-.69-.12-.23-.38-.31-.58-.16-.95.7-1.48,2.07-1.34,3.48.02.25.21.44.41.44.02,0,.03,0,.05,0,.23-.03.39-.28.37-.55Z"/>
      <path class="cls-1" d="m11.54,22.98c.77-.1,1.51.27,1.89.95.07.13.19.2.32.2.07,0,.14-.02.2-.06.18-.12.23-.38.12-.58-.53-.95-1.55-1.48-2.61-1.34-.21.03-.35.23-.33.46.02.23.21.4.41.37Z"/>
      <path class="cls-1" d="m30.07,17.97c-.72-2.26-.8-4.34-.8-5.11.06-.02.13-.02.19-.04,1.16-.37,2.02-1.31,2.32-2.48,1.79-.64,2.76-2.61,2.18-4.44-.51-1.61-2.06-2.61-3.69-2.47-.03-.22-.07-.44-.14-.65-.3-.94-.94-1.71-1.81-2.16-.87-.45-1.86-.54-2.79-.24-.34.11-.66.27-.95.47-.17-.13-.35-.25-.54-.35-.84-.44-1.79-.52-2.69-.23-1.14.37-1.97,1.27-2.3,2.34-.36,0-.71.06-1.05.17-1.93.62-2.99,2.7-2.38,4.64.07.21.15.41.26.61-1.41.83-2.1,2.55-1.59,4.16.29.91.91,1.65,1.75,2.09.8.42,1.72.51,2.58.27.64.55,1.44.83,2.25.83.35,0,.71-.05,1.06-.17.06-.02.12-.05.18-.07.43.62,1.56,2.37,2.28,4.63.04.12.12.22.23.28.07.03.14.05.21.05.05,0,.1,0,.14-.02l4.78-1.54c.25-.08.38-.34.3-.59Zm-11-4.28c-.13-.13-.32-.17-.5-.11,0,0-.05.02-.05.02l-.06.02c-.66.21-1.37.15-1.99-.17-.62-.32-1.08-.87-1.29-1.54-.42-1.32.26-2.74,1.54-3.24.14-.05.24-.17.28-.31.04-.14.01-.29-.07-.41-.18-.25-.32-.52-.41-.81-.46-1.44.34-2.99,1.77-3.45.2-.06.41-.1.61-.11,0,.38.04.77.16,1.15.06.2.25.33.45.33.05,0,.1,0,.14-.02.25-.08.38-.34.3-.59-.43-1.37.32-2.83,1.68-3.27.66-.21,1.36-.15,1.97.17.61.32,1.07.86,1.28,1.52.08.25.34.38.59.31.25-.08.38-.34.3-.59-.12-.38-.3-.72-.53-1.03.18-.11.36-.2.56-.27.69-.22,1.43-.16,2.08.18.65.34,1.13.91,1.35,1.61.09.29.13.59.13.9,0,.15.06.29.18.38.11.09.27.13.41.09,1.33-.34,2.7.43,3.12,1.74.44,1.38-.32,2.86-1.69,3.3l-.12.03c-.18.05-.31.2-.34.38-.16.96-.83,1.73-1.74,2.03-1.17.38-2.44-.14-3.02-1.23-.06-.12-.18-.21-.31-.24-.13-.03-.27,0-.38.08-.23.17-.48.3-.74.39-.27.08-.54.12-.83.12-.14,0-.27.05-.36.16-.09.1-.13.24-.12.37.15,1.23-.59,2.39-1.76,2.77-.91.29-1.91.05-2.59-.64Zm6.07,5.36c-.72-2.08-1.72-3.66-2.19-4.35.86-.64,1.4-1.65,1.42-2.75.22-.03.43-.07.63-.14.21-.07.4-.15.6-.26.65.88,1.67,1.4,2.74,1.42,0,.84.11,2.71.71,4.83l-3.9,1.25Z"/>
      <path class="cls-1" d="m36.47,22.3c.12-1.33-.69-2.62-2-3.04-1.31-.42-2.72.14-3.39,1.3-.68-.13-1.39,0-2,.35-1.31.77-1.78,2.47-1.09,3.89-.34.17-.63.4-.89.69-.76.89-.91,2.2-.4,3.31-.02,0-.04.02-.05.03-.4.21-.74.49-1,.85-.82,1.1-.67,2.69.35,3.72l2.58,2.59-.49,1.51c-.08.26.06.54.32.62.05.02.1.02.15.02.21,0,.4-.13.47-.34l.49-1.51,3.6-.59c1.42-.23,2.47-1.44,2.45-2.81,0-.45-.12-.87-.32-1.27,0-.02-.02-.04-.03-.05,1.06-.6,1.7-1.75,1.6-2.92-.03-.39-.14-.75-.32-1.08,1.39-.74,2-2.4,1.38-3.79-.29-.65-.79-1.16-1.42-1.46Zm-.45,4.4l-.45.23c-.13.07-.23.19-.26.34-.03.15,0,.3.11.41.26.3.4.64.43,1.03.07.81-.4,1.62-1.18,2.02l-.39.2c-.13.07-.23.19-.26.34-.03.15,0,.3.11.41.1.12.18.24.25.37.14.26.21.55.21.84.02.88-.68,1.67-1.63,1.82l-3.1.51,3.13-9.74c.08-.26-.06-.54-.32-.62-.26-.08-.53.06-.62.32l-3.13,9.74-2.22-2.23c-.68-.68-.79-1.72-.26-2.43.18-.24.4-.42.66-.56.13-.06.26-.12.41-.15.15-.04.27-.14.33-.27s.06-.29-.01-.43l-.2-.39c-.4-.78-.31-1.71.22-2.33.25-.29.56-.48.95-.58.15-.04.27-.14.33-.27.06-.14.06-.29-.01-.43l-.23-.45c-.48-.95-.17-2.13.69-2.63.3-.18.63-.27.97-.27.21,0,.43.04.63.11.25.09.52-.04.62-.28.37-.94,1.42-1.43,2.37-1.12.96.31,1.52,1.32,1.27,2.3-.06.26.08.52.34.59.54.16.98.55,1.21,1.07.41.92-.03,2.06-.98,2.54Z"/>
      <path class="cls-1" d="m33.12,14.62c0,1.38,1.12,2.5,2.5,2.5s2.5-1.12,2.5-2.5-1.12-2.5-2.5-2.5-2.5,1.12-2.5,2.5Zm4.08,0c0,.87-.71,1.58-1.58,1.58s-1.58-.71-1.58-1.58.71-1.58,1.58-1.58,1.58.71,1.58,1.58Z"/>
      <path class="cls-1" d="m21.63,32.12c-1.38,0-2.5,1.12-2.5,2.5s1.12,2.5,2.5,2.5,2.5-1.12,2.5-2.5-1.12-2.5-2.5-2.5Zm0,4.08c-.87,0-1.58-.71-1.58-1.58s.71-1.58,1.58-1.58,1.58.71,1.58,1.58-.71,1.58-1.58,1.58Z"/>
      <path class="cls-1" d="m3.35,5.71c-1.66,1.94-1.63,4.81.06,6.69.96,1.07,2.29,1.68,3.75,1.72.06,0,.11,0,.17,0,1.4,0,2.77-.55,3.77-1.53.45-.44.8-.94,1.07-1.5.05.02.11.03.16.03.07,0,.15-.02.21-.05.12-.06.22-.16.27-.29.6-1.66.34-3.52-.7-5.11-.06-.1-.13-.19-.21-.28.38-.32.82-.86.91-1.73.03-.27-.18-.52-.46-.54-.28-.04-.53.18-.55.45-.06.57-.37.92-.6,1.11-.23-.19-.41-.31-.41-.31-1.51-1.06-3.48-1.32-5.25-.7-.13.05-.24.15-.3.27-.05.12-.05.25,0,.36-.72.32-1.37.8-1.88,1.4Zm6.86-.51s.64.41,1.04,1.02c.75,1.15,1.02,2.47.75,3.69-.48-.29-1.19-.86-1.44-1.78-.04-.16-.16-.28-.32-.34-.06-.02-.12-.03-.17-.03-.1,0-.2.03-.29.09-.51.35-1.25.73-2.05.8.07-.8.48-1.53.84-2.05.1-.13.12-.31.06-.46-.06-.15-.19-.27-.36-.31-.86-.21-1.47-.9-1.8-1.39,1.29-.27,2.65,0,3.74.76Zm-4.46-.03c.35.48.89,1.05,1.64,1.4-.41.71-.76,1.63-.67,2.62.02.24.22.43.46.45,1,.09,1.92-.24,2.64-.63.38.77.97,1.29,1.45,1.62-.21.47-.51.9-.89,1.27-.84.82-2,1.27-3.19,1.24-1.17-.04-2.24-.53-3.02-1.39-1.36-1.51-1.38-3.83-.04-5.39.44-.52,1-.91,1.62-1.18Z"/>
    </g>
  </g>
</svg>