<?xml version="1.0" encoding="UTF-8"?>
<svg id="Layer_2" data-name="Layer 2" xmlns="http://www.w3.org/2000/svg" viewBox="0 0 36 27.74">
  <defs>
    <style>
      .cls-1 {
        fill: #fefdf9;
      }
    </style>
  </defs>
  <g id="Layer_1-2" data-name="Layer 1">
    <path class="cls-1" d="m4.77,16.22h3.37c.19,0,.34-.15.34-.34v-.64c0-.19-.15-.34-.34-.34h-3.37c-.19,0-.34.15-.34.34v.64c0,.19.15.34.34.34Z"/>
    <path class="cls-1" d="m16.33,16.22h3.37c.19,0,.34-.15.34-.34v-.64c0-.19-.15-.34-.34-.34h-3.37c-.19,0-.34.15-.34.34v.64c0,.19.15.34.34.34Z"/>
    <path class="cls-1" d="m10.53,4.66h3.37c.19,0,.34-.15.34-.34v-.64c0-.19-.15-.34-.34-.34h-3.37c-.19,0-.34.15-.34.34v.64c.04.19.19.34.34.34Z"/>
    <path class="cls-1" d="m22.09,4.66h3.37c.19,0,.34-.15.34-.34v-.64c0-.19-.15-.34-.34-.34h-3.37c-.19,0-.34.15-.34.34v.64c0,.19.15.34.34.34Z"/>
    <path class="cls-1" d="m31.23,14.89h-3.37c-.19,0-.34.15-.34.34v.64c0,.19.15.34.34.34h3.37c.19,0,.34-.15.34-.34v-.64c0-.19-.15-.34-.34-.34Z"/>
    <path class="cls-1" d="m36,14.25c0-1.52-1.21-2.73-2.73-2.73h-3.37c.23-.38.34-.83.34-1.33V2.73c0-1.52-1.21-2.73-2.73-2.73h-7.47c-.8,0-1.52.34-2.05.91-.49-.57-1.21-.91-2.05-.91h-7.47c-1.52,0-2.73,1.21-2.73,2.73v7.47c0,.49.11.95.34,1.33h-3.37c-1.52,0-2.73,1.21-2.73,2.73v7.47c0,.76.3,1.44.8,1.93-.49.42-.8,1.06-.8,1.74,0,1.29,1.06,2.35,2.35,2.35h31.3c1.29,0,2.35-1.06,2.35-2.35,0-.68-.3-1.33-.8-1.74.49-.49.8-1.17.8-1.93v-7.47ZM18.68,2.73c0-.72.61-1.33,1.33-1.33h7.47c.72,0,1.33.61,1.33,1.33v7.47c0,.72-.61,1.33-1.33,1.33h-7.43c-.72,0-1.33-.61-1.33-1.33V2.73h-.04Zm3.07,10.19c.72,0,1.33.61,1.33,1.33v7.47c0,.72-.61,1.33-1.33,1.33h-7.5c-.72,0-1.33-.61-1.33-1.33v-7.47c0-.72.61-1.33,1.33-1.33h7.5ZM7.16,2.73c0-.72.61-1.33,1.33-1.33h7.47c.72,0,1.33.61,1.33,1.33v7.47c0,.72-.61,1.33-1.33,1.33h-7.47c-.72,0-1.33-.61-1.33-1.33V2.73ZM1.4,14.25c0-.72.61-1.33,1.33-1.33h7.47c.72,0,1.33.61,1.33,1.33v7.47c0,.72-.61,1.33-1.33,1.33H2.73c-.72,0-1.33-.61-1.33-1.33v-7.47Zm32.25,12.09H2.35c-.53,0-.95-.42-.95-.95s.42-.95.95-.95h31.3c.53,0,.95.42.95.95s-.42.95-.95.95Zm.95-4.62c0,.72-.61,1.33-1.33,1.33h-7.47c-.72,0-1.33-.61-1.33-1.33v-7.47c0-.72.61-1.33,1.33-1.33h7.47c.72,0,1.33.61,1.33,1.33v7.47Z"/>
  </g>
</svg>