<?xml version="1.0" encoding="UTF-8"?>
<svg id="Layer_2" data-name="Layer 2" xmlns="http://www.w3.org/2000/svg" viewBox="0 0 39.4 39.4">
  <defs>
    <style>
      .cls-1 {
        fill: #fefdf9;
        stroke: #fefdf9;
        stroke-width: .25px;
      }

      .cls-2 {
        fill: #7aa191;
      }
    </style>
  </defs>
  <g id="Layer_1-2" data-name="Layer 1">
    <circle class="cls-1" cx="19.7" cy="19.7" r="19.57"/>
    <path class="cls-2" d="m29.78,16.48l-9.06-8.34c-.58-.53-1.47-.53-2.06,0l-9.07,8.34c-.19.16-.3.39-.3.63v9.29c0,2.39,2.09,4.34,4.65,4.34h11.5c2.56,0,4.67-1.95,4.67-4.34v-9.29c0-.25-.13-.48-.33-.63Zm-1.3,9.92c0,1.49-1.35,2.71-3.02,2.71h-11.53c-1.67,0-3.02-1.21-3.02-2.71v-8.93s8.78-8.07,8.78-8.07l8.79,8.07v8.93Z"/>
    <path class="cls-2" d="m22.03,21.79h-4.68c-.92,0-1.67.75-1.68,1.67v6.45c0,.45.37.81.81.81s.81-.37.81-.81v-6.45s.02-.06.05-.06h4.68s.05.03.05.06v6.45c0,.45.36.81.81.81s.81-.37.81-.81v-6.45c0-.92-.76-1.67-1.68-1.67Z"/>
  </g>
</svg>