<?xml version="1.0" encoding="UTF-8"?>
<svg id="Layer_1" data-name="Layer 1" xmlns="http://www.w3.org/2000/svg" viewBox="0 0 141.73 141.73">
  <path d="m70.9,118.91c7,0,12.68-5.69,12.68-12.68s-5.69-12.68-12.68-12.68-12.68,5.69-12.68,12.68c0,6.99,5.69,12.68,12.68,12.68Z"/>
  <path d="m105.09,112.11c7,0,12.68-5.69,12.68-12.68s-5.69-12.68-12.68-12.68-12.68,5.69-12.68,12.68c0,6.99,5.69,12.68,12.68,12.68Z"/>
  <path d="m115.62,111.48l-.47-.31h-.5c-.61,0-1.06.16-1.42.53-2.06,2.2-4.94,2.2-7.47,2.2h-1.34c-2.54,0-5.42,0-7.47-2.2-.56-.6-1.6-.74-2.33-.26-3.47,2.33-6,5.7-7.3,9.55,2.82,3.01,4.6,6.9,4.99,11.07h29.75c.99,0,1.8-.81,1.8-1.8v-3.23c0-6.26-3.1-12.09-8.25-15.55Z"/>
  <path d="m49.32,99.42c0-6.99-5.69-12.68-12.68-12.68s-12.68,5.69-12.68,12.68c0,6.99,5.69,12.68,12.68,12.68s12.68-5.69,12.68-12.68Z"/>
  <path d="m26.12,111.48l.47-.31h.5c.61,0,1.06.16,1.42.53,2.06,2.2,4.94,2.2,7.47,2.2h1.34c2.54,0,5.42,0,7.47-2.2.56-.6,1.6-.74,2.33-.26,3.47,2.33,6,5.7,7.3,9.55-2.82,3.01-4.6,6.9-4.99,11.07h-29.75c-.99,0-1.8-.81-1.8-1.8v-3.23c0-6.26,3.1-12.09,8.25-15.55Z"/>
  <path d="m52.12,137.06c0,1,.81,1.81,1.81,1.81h33.94c.99,0,1.81-.81,1.81-1.8v-3.23c0-6.26-3.1-12.09-8.25-15.55l-.47-.31h-.5c-.61,0-1.06.16-1.42.53-2.06,2.2-4.94,2.2-7.47,2.2h-1.34c-2.54,0-5.42,0-7.47-2.2-.56-.6-1.6-.74-2.33-.26-5.2,3.5-8.3,9.33-8.3,15.59v3.23Z"/>
</svg>