<svg width="88" height="87" viewBox="0 0 88 87" fill="none" xmlns="http://www.w3.org/2000/svg">
<circle cx="43.5" cy="43.5" r="43.5" fill="white"/>
<path d="M55.0835 59.4422C52.8667 57.422 50.5159 55.5906 48.0533 53.9519C48.0156 53.9339 47.9779 53.9145 47.943 53.8923C46.1145 52.6838 44.2274 51.5849 42.29 50.5929C45.4846 53.8729 48.165 57.6426 50.1876 61.7232C51.7856 60.8893 53.4199 60.129 55.0849 59.4422H55.0835Z" fill="#FFE9A8"/>
<path d="M70.2461 46.9882V50.0198C72.6933 50.3778 75.1028 50.9397 77.4495 51.6987C78.9636 50.7607 79.9721 49.1041 79.9721 47.2185C79.9721 45.8435 79.4371 44.5393 78.465 43.5473C78.2303 43.3073 78.1632 42.9507 78.2973 42.644C78.5097 42.1543 78.6172 41.6326 78.6172 41.097C78.6172 39.3779 77.4942 37.9155 75.9339 37.3689C76.2817 38.2055 76.4633 39.1088 76.4633 40.0356C76.4633 43.6167 73.7423 46.5775 70.2461 46.9882Z" fill="#5ED1C9"/>
<path d="M64.0286 40.0398C64.0286 42.7079 66.0051 44.9251 68.5794 45.3233V43.7069C68.5794 43.2504 68.9523 42.8799 69.4119 42.8799C69.8714 42.8799 70.2444 43.2504 70.2444 43.7069V45.3233C72.8187 44.9251 74.7952 42.7065 74.7952 40.0398C74.7952 38.6495 74.2588 37.3314 73.2867 36.3297C73.0548 36.091 72.9891 35.7372 73.1204 35.4306C73.3327 34.9339 73.4417 34.408 73.4417 33.8642C73.4417 31.6581 71.6342 29.8627 69.4133 29.8627C67.1923 29.8627 65.3849 31.6581 65.3849 33.8642C65.3849 34.4067 65.4924 34.9339 65.7061 35.4306C65.8374 35.7358 65.7718 36.0896 65.5399 36.3297C64.5663 37.3314 64.0314 38.6495 64.0314 40.0398H64.0286Z" fill="#C0F0E3"/>
<path d="M14.0534 30.938C12.4121 31.4874 11.3101 33.0108 11.3101 34.7271C11.3101 36.9332 13.1175 38.7286 15.3385 38.7286C16.2366 38.7286 17.0971 38.4317 17.8025 37.8878V36.2478C17.8025 35.7913 18.1754 35.4209 18.635 35.4209C19.0945 35.4209 19.4675 35.7913 19.4675 36.2478V37.7921C20.1924 38.397 21.0975 38.73 22.046 38.73C24.2683 38.73 26.0744 36.9346 26.0744 34.7285C26.0744 32.9623 24.9346 31.4263 23.2375 30.9047C22.8743 30.7937 22.6326 30.451 22.6522 30.0736L22.6578 29.9792C22.6606 29.9459 22.6634 29.9126 22.6634 29.8793C22.6634 27.6719 20.8559 25.8779 18.635 25.8779C16.414 25.8779 14.6065 27.6732 14.6065 29.8793C14.6065 29.9265 14.6107 29.9723 14.6135 30.0181L14.6191 30.1082C14.6401 30.4801 14.4082 30.8186 14.0534 30.938Z" fill="#66A428"/>
<path d="M50.4572 63.4464C50.3846 63.5283 50.2938 63.5976 50.1876 63.6462C50.1178 63.6781 50.0466 63.6975 49.9739 63.7086C49.8259 63.7891 49.6764 63.8696 49.5297 63.9528C41.3933 68.4996 34.4092 74.9777 29.2717 82.7267C33.8449 84.4124 38.7868 85.3365 43.9439 85.3365C50.3608 85.3365 56.4468 83.9088 61.8999 81.3572H54.751C54.2915 81.3572 53.9185 80.9868 53.9185 80.5303C53.9185 80.0738 54.2915 79.7034 54.751 79.7034H65.0763C66.589 78.8321 68.0431 77.8719 69.4316 76.8285H61.2197C60.7601 76.8285 60.3872 76.4581 60.3872 76.0016C60.3872 75.5451 60.7601 75.1747 61.2197 75.1747H71.4919C72.5534 74.2659 73.5703 73.3072 74.5369 72.2998H65.8948C65.4353 72.2998 65.0623 71.9294 65.0623 71.4729C65.0623 71.0164 65.4353 70.646 65.8948 70.646H76.0441C76.8417 69.7219 77.6001 68.7618 78.3167 67.7711H69.3505C68.891 67.7711 68.518 67.4007 68.518 66.9442C68.518 66.4877 68.891 66.1173 69.3505 66.1173H79.4537C80.0627 65.1835 80.6354 64.2248 81.169 63.2424H71.8718C71.4122 63.2424 71.0393 62.872 71.0393 62.4155C71.0393 61.959 71.4122 61.5886 71.8718 61.5886H82.0225C82.7739 60.0457 83.436 58.4529 83.9962 56.8129C82.0644 56.6242 80.1144 56.5271 78.1826 56.5271C68.4943 56.5271 58.9345 58.9191 50.4628 63.452L50.4572 63.4464Z" fill="#66A428"/>
<path d="M38.3901 69.8204C36.8955 64.4135 34.3491 59.4394 30.8138 55.0314C27.2645 50.6068 22.9022 46.9744 17.85 44.2341C17.8486 44.2341 17.8472 44.2313 17.8458 44.2313C17.0859 44.2022 16.3232 44.1856 15.5592 44.1856C11.3855 44.1856 7.23136 44.6268 3.1792 45.4939C17.3261 51.9276 27.0424 65.4027 28.6166 80.7523C31.4158 76.7259 34.7053 73.0505 38.3915 69.819L38.3901 69.8204Z" fill="#9BD13F"/>
<path d="M37.3702 48.3036C35.2973 47.4753 33.177 46.7621 31.0161 46.1738C30.9938 46.1683 30.9742 46.1585 30.9532 46.1516C27.8579 45.315 24.6843 44.7281 21.4563 44.402C25.5099 47.0035 29.0745 50.2044 32.0805 53.952C35.6074 58.3489 38.1943 63.2855 39.7783 68.6411C42.5706 66.3393 45.5695 64.2831 48.7389 62.5127C48.7417 62.5113 48.7445 62.5099 48.7473 62.5085C46.0514 57.0474 42.1361 52.1552 37.3688 48.3036H37.3702Z" fill="#BDE773"/>
<path d="M56.7582 51.775C56.7582 51.775 56.7526 51.7764 56.7498 51.7778C55.3921 52.0053 54.0456 52.2981 52.7186 52.6547C52.7047 52.6588 52.6907 52.6616 52.6753 52.6658C52.3736 52.7476 52.0719 52.8323 51.773 52.9211C51.7339 52.9322 51.6948 52.9433 51.6556 52.9558C51.3861 53.0362 51.1193 53.1195 50.8525 53.2041C50.7854 53.2249 50.7184 53.2457 50.6513 53.2679C50.4991 53.3179 50.3468 53.3706 50.1946 53.4219C52.5021 55.0411 54.7077 56.8324 56.7959 58.7845C63.6166 56.2149 70.9024 54.8774 78.2594 54.8774C79.307 54.8774 80.3602 54.9065 81.4148 54.9607C75.9281 52.484 69.9302 51.1881 63.8498 51.1881C61.4557 51.1881 59.0867 51.3865 56.7582 51.775Z" fill="#E6D285"/>
<path d="M1.75293 46.6358C3.01006 62.4488 13.0881 75.8337 27.0898 81.9233C25.855 66.4669 16.0759 52.8461 1.75293 46.6358Z" fill="#66A428"/>
<path d="M84.9447 56.8101C78.5528 53.1403 71.2489 51.202 63.822 51.202C58.6119 51.202 53.5247 52.133 48.7015 53.9672L48.1064 52.4216C53.1196 50.5138 58.4066 49.5467 63.822 49.5467C71.5408 49.5467 79.1325 51.5627 85.7785 55.3783L84.9447 56.8101Z" fill="#00615E"/>
<path d="M55.9745 60.2719C45.0402 49.8936 30.6865 44.1786 15.5576 44.1786C10.6604 44.1786 5.78967 44.7822 1.07961 45.9726L0.668945 44.3687C5.5131 43.1436 10.5221 42.5234 15.5576 42.5234C31.1181 42.5234 45.8797 48.4021 57.1254 59.0745L55.9745 60.2705V60.2719Z" fill="#00615E"/>
<path d="M43.9424 87C19.7133 87 0 67.4186 0 43.3516C0 21.2256 16.6584 2.59192 38.7491 0.00706479C38.9851 -0.0206846 39.2226 0.0528513 39.4 0.211023C39.5774 0.367807 39.6793 0.592577 39.6793 0.829834V18.9432C39.6793 19.3997 39.3064 19.7702 38.8468 19.7702C35.1313 19.7702 32.1086 22.5229 32.1086 25.9056V44.8209C37.911 46.4665 43.4186 48.9722 48.496 52.2786C50.8497 51.4086 53.2941 50.7385 55.7776 50.282V25.907C55.7776 22.5243 52.7549 19.7716 49.0394 19.7716C48.5798 19.7716 48.2069 19.4011 48.2069 18.9446V0.828447C48.2069 0.592577 48.3089 0.367807 48.4863 0.209635C48.6636 0.0528513 48.9011 -0.0220721 49.1372 0.00567732C71.2278 2.59053 87.8862 21.2242 87.8862 43.3488C87.8862 67.4173 68.173 86.9972 43.9438 86.9972L43.9424 87ZM38.0129 1.76915C17.2255 4.66341 1.665 22.3758 1.665 43.3516C1.665 66.5071 20.631 85.3461 43.9424 85.3461C67.2539 85.3461 86.2198 66.5071 86.2198 43.3516C86.2198 22.3772 70.6593 4.66341 49.8719 1.77054V18.1538C54.1154 18.5423 57.4426 21.8708 57.4426 25.9056V50.9744C57.4426 51.3781 57.1493 51.7236 56.7484 51.7902C54.026 52.2453 51.3469 52.9682 48.7838 53.9366C48.7726 53.9422 48.7614 53.9477 48.7503 53.9533C48.489 54.0726 48.1817 54.0545 47.9415 53.895C42.7328 50.4513 37.0519 47.8775 31.0554 46.2445C30.6936 46.146 30.4422 45.8199 30.4422 45.4467V25.9042C30.4422 21.8694 33.7694 18.5423 38.0129 18.1524V1.76915Z" fill="#00615E"/>
<path d="M28.713 83.5938L27.3064 82.7086C32.6366 74.3491 40.0398 67.3688 48.714 62.521C57.662 57.5205 67.8504 54.8774 78.1784 54.8774C80.5139 54.8774 82.8787 55.0134 85.2058 55.2825L85.013 56.9267C82.7502 56.6644 80.4496 56.5326 78.1784 56.5326C68.1353 56.5326 58.2291 59.1022 49.5297 63.9639C41.0958 68.6785 33.8966 75.466 28.713 83.5952V83.5938Z" fill="#00615E"/>
<path d="M37.6499 48.1897C37.1903 48.1897 36.8174 47.8193 36.8174 47.3628V38.5579C36.8174 38.1015 37.1903 37.731 37.6499 37.731C38.1094 37.731 38.4824 38.1015 38.4824 38.5579V47.3628C38.4824 47.8193 38.1094 48.1897 37.6499 48.1897Z" fill="#00615E"/>
<path d="M43.9424 51.1728C43.4828 51.1728 43.1099 50.8023 43.1099 50.3459V38.5579C43.1099 38.1015 43.4828 37.731 43.9424 37.731C44.4019 37.731 44.7749 38.1015 44.7749 38.5579V50.3459C44.7749 50.8023 44.4019 51.1728 43.9424 51.1728Z" fill="#00615E"/>
<path d="M50.2351 53.1638C49.7755 53.1638 49.4026 52.7934 49.4026 52.3369V38.5579C49.4026 38.1015 49.7755 37.731 50.2351 37.731C50.6946 37.731 51.0676 38.1015 51.0676 38.5579V52.3369C51.0676 52.7934 50.6946 53.1638 50.2351 53.1638Z" fill="#00615E"/>
<path d="M69.4136 51.3976C69.8731 51.3976 70.2461 51.0271 70.2461 50.5707V43.7041C70.2461 43.2476 69.8731 42.8772 69.4136 42.8772C68.954 42.8772 68.5811 43.2476 68.5811 43.7041V50.5707C68.5811 51.0271 68.954 51.3976 69.4136 51.3976Z" fill="#00615E"/>
<path d="M82.3423 63.2479H71.8662C71.4066 63.2479 71.0337 62.8775 71.0337 62.421C71.0337 61.9645 71.4066 61.5941 71.8662 61.5941H82.3423C82.8019 61.5941 83.1748 61.9645 83.1748 62.421C83.1748 62.8775 82.8019 63.2479 82.3423 63.2479Z" fill="#00615E"/>
<path d="M79.8223 67.7766H69.3462C68.8866 67.7766 68.5137 67.4062 68.5137 66.9497C68.5137 66.4932 68.8866 66.1228 69.3462 66.1228H79.8223C80.2818 66.1228 80.6548 66.4932 80.6548 66.9497C80.6548 67.4062 80.2818 67.7766 79.8223 67.7766Z" fill="#00615E"/>
<path d="M76.3667 72.3067H65.8906C65.4311 72.3067 65.0581 71.9363 65.0581 71.4798C65.0581 71.0233 65.4311 70.6529 65.8906 70.6529H76.3667C76.8263 70.6529 77.1992 71.0233 77.1992 71.4798C77.1992 71.9363 76.8263 72.3067 76.3667 72.3067Z" fill="#00615E"/>
<path d="M71.6929 76.8368H61.2168C60.7572 76.8368 60.3843 76.4664 60.3843 76.0099C60.3843 75.5534 60.7572 75.183 61.2168 75.183H71.6929C72.1524 75.183 72.5254 75.5534 72.5254 76.0099C72.5254 76.4664 72.1524 76.8368 71.6929 76.8368Z" fill="#00615E"/>
<path d="M65.2256 81.3655H54.7495C54.2899 81.3655 53.917 80.995 53.917 80.5386C53.917 80.0821 54.2899 79.7116 54.7495 79.7116H65.2256C65.6852 79.7116 66.0581 80.0821 66.0581 80.5386C66.0581 80.995 65.6852 81.3655 65.2256 81.3655Z" fill="#00615E"/>
<path d="M49.8369 63.7335C49.5226 63.7335 49.2223 63.5559 49.0812 63.2549C46.3491 57.4289 42.2271 52.2148 37.1594 48.18C36.8004 47.8942 36.7432 47.3739 37.0309 47.0173C37.3187 46.6607 37.8425 46.6038 38.2014 46.8897C43.4674 51.084 47.7529 56.502 50.5912 62.5583C50.7854 62.9732 50.6052 63.4644 50.1875 63.6572C50.0744 63.7099 49.9543 63.7349 49.8369 63.7349V63.7335Z" fill="#00615E"/>
<path d="M39.2909 70.7694C38.9222 70.7694 38.5856 70.5252 38.4864 70.1548C37.0058 64.6146 34.4244 59.524 30.8137 55.0244C27.2644 50.5998 22.9021 46.9674 17.8498 44.2271C17.4462 44.0079 17.2981 43.5057 17.5174 43.1047C17.7381 42.7037 18.2437 42.5566 18.6474 42.7745C23.8966 45.6202 28.4279 49.3955 32.1169 53.9921C35.8715 58.6721 38.5562 63.9667 40.0969 69.7288C40.2142 70.17 39.9502 70.6237 39.5061 70.7403C39.4348 70.7597 39.3622 70.768 39.2923 70.768L39.2909 70.7694Z" fill="#00615E"/>
<path d="M27.9601 83.9809C27.5187 83.9809 27.1499 83.6355 27.129 83.1929C26.3565 66.7999 15.9321 52.2703 0.572731 46.1766C0.145306 46.0073 -0.0628196 45.5258 0.107592 45.1013C0.278003 44.6767 0.762698 44.47 1.19012 44.6392C17.1543 50.973 27.9894 66.0756 28.7926 83.1152C28.8135 83.5716 28.4588 83.9587 27.9992 83.9809C27.9852 83.9809 27.9727 83.9809 27.9601 83.9809Z" fill="#00615E"/>
<path d="M62.3638 40.0356C62.3638 38.3915 62.9351 36.825 63.9841 35.5707C63.8081 35.0199 63.7187 34.4469 63.7187 33.86C63.7187 30.741 66.2735 28.2033 69.4135 28.2033C72.5535 28.2033 75.1083 30.741 75.1083 33.86C75.1083 34.4455 75.0189 35.0199 74.8429 35.5707C75.8919 36.825 76.4632 38.3915 76.4632 40.0356C76.4632 43.8969 73.3008 47.0382 69.4135 47.0382C65.5262 47.0382 62.3638 43.8969 62.3638 40.0356ZM65.3837 33.8614C65.3837 34.4039 65.4912 34.9311 65.705 35.4278C65.8363 35.7331 65.7706 36.0869 65.5387 36.3269C64.5652 37.3287 64.0302 38.6468 64.0302 40.037C64.0302 42.9854 66.4453 45.3857 69.4149 45.3857C72.3845 45.3857 74.7996 42.9868 74.7996 40.037C74.7996 38.6468 74.2632 37.3287 73.2911 36.3269C73.0592 36.0883 72.9935 35.7345 73.1248 35.4278C73.3372 34.9311 73.4461 34.4053 73.4461 33.8614C73.4461 31.6553 71.6386 29.8599 69.4177 29.8599C67.1968 29.8599 65.3893 31.6553 65.3893 33.8614H65.3837Z" fill="#00615E"/>
<path d="M78.1127 53.2346C80.2177 52.0317 81.6369 49.7853 81.6369 47.2185C81.6369 45.5882 81.0656 44.0343 80.018 42.7897C80.1926 42.2444 80.282 41.677 80.282 41.097C80.282 38.0016 77.7272 35.4819 74.5872 35.4819V37.1358C76.8095 37.1358 78.6156 38.9117 78.6156 41.0956C78.6156 41.6326 78.508 42.1529 78.2957 42.6426C78.163 42.9493 78.2287 43.3059 78.4633 43.5459C79.4341 44.5379 79.9705 45.8421 79.9705 47.2171C79.9705 49.5897 78.3753 51.6015 76.1851 52.2731C75.6795 52.4285 77.0735 53.8256 78.1113 53.2332L78.1127 53.2346Z" fill="#00615E"/>
<path d="M18.6347 44.1397C18.1752 44.1397 17.8022 43.7693 17.8022 43.3128V36.2492C17.8022 35.7927 18.1752 35.4223 18.6347 35.4223C19.0943 35.4223 19.4672 35.7927 19.4672 36.2492V43.3128C19.4672 43.7693 19.0943 44.1397 18.6347 44.1397Z" fill="#00615E"/>
<path d="M22.0459 40.3839C20.8293 40.3839 19.6629 40.0009 18.6921 39.2947C17.7213 40.0009 16.555 40.3839 15.3384 40.3839C12.1983 40.3839 9.64355 37.8462 9.64355 34.7272C9.64355 32.5044 10.9482 30.5134 12.947 29.5963C13.0951 26.6077 15.5898 24.2226 18.6349 24.2226C21.6799 24.2226 24.1411 26.5772 24.3199 29.5394C26.39 30.4288 27.7421 32.442 27.7421 34.7285C27.7421 37.8476 25.1873 40.3853 22.0473 40.3853L22.0459 40.3839ZM18.6921 37.3911C18.8989 37.3911 19.107 37.4674 19.2676 37.62C20.0219 38.336 21.0094 38.73 22.0459 38.73C24.2682 38.73 26.0743 36.9346 26.0743 34.7285C26.0743 32.9623 24.9345 31.4264 23.2374 30.9047C22.8742 30.7937 22.6325 30.451 22.6521 30.0736L22.6577 29.9792C22.6605 29.9459 22.6633 29.9126 22.6633 29.8793C22.6633 27.6733 20.8558 25.8779 18.6349 25.8779C16.4139 25.8779 14.6064 27.6733 14.6064 29.8793C14.6064 29.9265 14.6106 29.9723 14.6134 30.0181L14.619 30.1083C14.64 30.4801 14.4081 30.8187 14.0533 30.938C12.412 31.4874 11.31 33.0109 11.31 34.7272C11.31 36.9332 13.1174 38.7286 15.3384 38.7286C16.3762 38.7286 17.3624 38.3346 18.118 37.6186C18.2787 37.466 18.4854 37.3897 18.6935 37.3897L18.6921 37.3911Z" fill="#00615E"/>
</svg>
