<svg width="161" height="54" viewBox="0 0 161 54" fill="none" xmlns="http://www.w3.org/2000/svg">
<path d="M8.48562 35.5183C8.78868 35.3662 9.01598 35.1761 9.20539 34.9099C9.3948 34.6437 9.58421 34.3775 9.77362 34.1113C10.8343 32.5521 11.8572 30.9169 12.8421 29.2056C13.7892 27.4944 14.7741 25.7831 15.7212 24.0338C15.7969 23.9197 15.8727 23.8056 15.9484 23.6155C16.0242 23.4634 16.1 23.3113 16.2136 23.1972C16.3273 23.0831 16.4409 22.969 16.5924 22.893C16.744 22.8169 16.8955 22.8169 17.0849 22.8169C17.1607 23.007 17.1607 23.1592 17.047 23.3493C16.9334 23.5014 16.8576 23.6535 16.7819 23.8056C16.5546 24.3 16.2894 24.7944 16.0242 25.2507C15.759 25.707 15.4939 26.1634 15.2287 26.6197C14.3574 28.1789 13.524 29.738 12.7284 31.3352C11.9329 32.9324 11.0237 34.4535 10.0009 35.8986C9.84939 36.0887 9.69786 36.3169 9.54633 36.507C9.3948 36.6972 9.20539 36.8873 8.9781 37.0014C8.78868 37.1535 8.56139 37.2296 8.3341 37.2676C8.1068 37.3056 7.84162 37.2296 7.53857 37.0775C6.97033 36.7732 6.55363 36.3169 6.32633 35.6704C6.06115 35.0239 5.90962 34.3014 5.87174 33.5028C5.79598 32.7042 5.83386 31.8676 5.90962 30.993C5.98539 30.1183 6.09904 29.3197 6.21268 28.5592C6.62939 25.8972 7.08398 23.3873 7.61433 20.9916C8.14468 18.6338 8.82657 16.2761 9.65998 14.0324C9.84939 13.538 10.0388 13.0056 10.2661 12.4732C10.4934 11.9408 10.7586 11.4085 11.0237 10.9141C11.2889 10.4197 11.6299 9.92535 11.9708 9.50704C12.3117 9.08873 12.6906 8.74648 13.1073 8.48028C13.4103 8.29014 13.827 8.1 14.2816 7.98592C14.7362 7.87183 15.2287 7.79578 15.7212 7.79578C16.2136 7.79578 16.6682 7.87183 17.0849 8.02395C17.5016 8.17606 17.8047 8.44226 17.9941 8.78451C18.1835 9.16479 18.2593 9.54507 18.2593 10.0394C18.2972 10.9141 18.1456 11.7507 17.8426 12.5873C17.5395 13.3859 17.2364 14.1465 16.9713 14.793C16.2515 16.5803 15.4181 18.2535 14.471 19.8887C13.524 21.4859 12.4633 22.931 11.251 24.1099C11.1374 24.2239 11.0237 24.338 10.8722 24.4521C10.7586 24.5662 10.607 24.6803 10.4176 24.7944C10.304 24.8704 10.1524 24.9845 9.92515 25.0986C9.69786 25.2127 9.58421 25.3268 9.54633 25.4028C9.47057 25.5169 9.43268 25.707 9.43268 25.9732C9.3948 26.2394 9.35692 26.4676 9.31904 26.6197C9.12963 27.6845 8.9781 28.7113 8.78868 29.7C8.63715 30.6887 8.48563 31.7535 8.37198 32.8183C8.3341 33.2747 8.29621 33.731 8.25833 34.1493C8.22045 34.7197 8.29621 35.138 8.48562 35.5183ZM15.8348 14.5648C16.0621 13.9944 16.3273 13.3099 16.5924 12.6254C16.8576 11.9028 16.9334 11.1423 16.8955 10.3056C16.8576 10.0014 16.8197 9.73521 16.6682 9.39296C16.5546 9.08873 16.3652 8.89859 16.1 8.86056C15.9484 8.82254 15.8348 8.89859 15.6833 9.01268C15.5317 9.12676 15.3802 9.24085 15.2666 9.39296C15.115 9.54507 15.0014 9.69718 14.8877 9.8493C14.7741 10.0014 14.6604 10.1535 14.5847 10.2296C14.0164 11.0662 13.4861 11.9408 13.0694 12.8535C12.6148 13.7282 12.236 14.6789 11.8572 15.5916C11.3268 16.9986 10.9101 18.4817 10.6449 19.9648C10.3797 21.4479 10.0767 22.931 9.77362 24.3761C10.9101 23.0831 12.0087 21.6 13.1073 19.8507C14.0922 18.1394 15.0393 16.3901 15.8348 14.5648Z" fill="#7AA191"/>
<path d="M26.0252 34.1113C26.4419 33.8071 26.745 33.4268 26.9723 32.9704C27.1996 32.5141 27.4269 32.0578 27.6541 31.6014C28.2981 30.2324 28.9043 28.7873 29.4725 27.2662C30.0029 25.7451 30.4953 24.1859 30.9499 22.5887C31.1772 22.6268 31.3287 22.7409 31.3666 22.893C31.4045 23.0451 31.4424 23.2352 31.4424 23.4254C31.4803 24.0718 31.4045 24.7564 31.2151 25.4028C31.0257 26.0493 30.8363 26.6958 30.6469 27.3042C30.268 28.5211 29.9271 29.7 29.5104 30.8028C29.0937 31.9057 28.6391 33.0085 28.0708 34.0733C27.8436 34.5296 27.5026 35.024 27.1238 35.5183C26.745 36.0507 26.2525 36.3169 25.7221 36.3549C25.3433 36.393 24.9645 36.2789 24.6236 36.0887C24.2826 35.8986 23.9796 35.7085 23.828 35.5183C23.5629 35.1761 23.3734 34.7578 23.2977 34.2254C23.2219 33.693 23.1461 33.1606 23.1461 32.5521C23.1461 31.9437 23.184 31.3352 23.2219 30.6887C23.2598 30.0423 23.2598 29.4718 23.2598 28.9395C23.0325 29.5479 22.8052 30.1564 22.5779 30.8028C22.3506 31.4493 22.0476 32.0578 21.6687 32.6282C21.4793 32.9324 21.252 33.2366 20.9869 33.6169C20.7217 33.9972 20.4186 34.3014 20.0398 34.5676C19.6988 34.8338 19.2821 35.024 18.8654 35.138C18.4487 35.2521 17.9941 35.1761 17.5017 34.9479C16.9334 34.6817 16.5167 34.2254 16.2516 33.6169C15.9864 33.0085 15.8727 32.324 15.8348 31.5634C15.797 30.8028 15.8727 30.0423 16.0243 29.2817C16.1758 28.5211 16.3652 27.7986 16.5546 27.1902C16.9713 25.9733 17.4259 24.8704 17.9941 23.8437C18.5624 22.8169 19.1685 21.9803 19.9261 21.3338C20.1156 21.1437 20.3807 20.9535 20.6838 20.8014C20.9868 20.6493 21.2899 20.4972 21.593 20.4592C22.0476 20.4211 22.4264 20.4592 22.8052 20.5733C23.184 20.6873 23.525 20.7634 23.9038 20.8395C23.9796 20.4592 24.2447 20.193 24.6236 20.0028C25.0024 19.8127 25.4191 19.8887 25.7979 20.193C26.0631 20.3831 26.2525 20.6873 26.3283 21.1057C26.404 21.524 26.4798 21.9423 26.4798 22.3986C26.4798 22.8549 26.4798 23.3493 26.404 23.8437C26.3661 24.338 26.3283 24.7944 26.2904 25.1747C26.2525 25.669 26.2146 26.1634 26.1389 26.6578C26.101 27.1521 26.0631 27.6845 25.9873 28.2169C25.9116 29.2817 25.7979 30.3465 25.7221 31.4113C25.7221 32.4 25.7979 33.3127 26.0252 34.1113ZM22.237 22.8549C21.8203 23.5395 21.4036 24.262 20.9869 25.0226C20.5701 25.7831 20.1913 26.6197 19.8504 27.4564C19.5094 28.293 19.2443 29.2057 19.0548 30.1564C18.8654 31.1071 18.7897 32.0578 18.8276 33.0465C19.4337 32.6662 19.9261 32.1338 20.305 31.5254C20.6838 30.8789 21.0626 30.2324 21.4414 29.5859C21.6308 29.2817 21.7824 28.9395 21.9718 28.5972C22.1612 28.2549 22.3127 27.9127 22.5021 27.5324C22.6916 27.1902 22.881 26.8479 23.0704 26.4676C23.2598 26.0873 23.4113 25.7451 23.4871 25.4028C23.6386 24.8324 23.6765 24.224 23.6765 23.6535C23.6765 23.0831 23.7144 22.4747 23.828 21.8662C23.6386 21.7141 23.4492 21.6761 23.2598 21.7141C23.1083 21.7521 22.9567 21.7902 22.8431 21.9042C22.7294 22.0183 22.6158 22.1704 22.5021 22.3226C22.4264 22.5507 22.3127 22.7028 22.237 22.8549Z" fill="#7AA191"/>
<path d="M45.5725 17.531C46.2923 16.9606 47.0499 16.3901 47.8076 15.8197C48.5652 15.2493 49.3608 14.7169 50.2321 14.2225C50.6488 13.9944 51.0655 13.7662 51.5579 13.538C52.0504 13.3099 52.5429 13.0817 53.0732 12.9296C53.6036 12.7775 54.1718 12.6254 54.74 12.5873C55.3083 12.5493 55.8765 12.5493 56.4826 12.7014C57.5433 12.9296 58.3768 13.5 58.9071 14.3366C59.4375 15.1732 59.7784 16.2 59.8163 17.3789C59.892 18.6718 59.8163 19.8887 59.5132 21.0296C59.2102 22.1704 58.945 23.2352 58.6419 24.2239C59.1344 24.3 59.6648 24.3761 60.233 24.5282C60.4224 24.5662 60.6876 24.6423 61.0285 24.7183C61.3695 24.7944 61.521 24.9465 61.521 25.1366C61.521 25.2887 61.4452 25.4028 61.2179 25.4789C61.0285 25.5549 60.8012 25.593 60.5361 25.631C60.2709 25.631 60.0057 25.631 59.7026 25.631C59.4375 25.631 59.2102 25.593 59.0586 25.593C58.9071 25.5549 58.7556 25.5549 58.604 25.5169C58.4525 25.4789 58.301 25.4789 58.1873 25.5169C58.1116 25.5549 57.9979 25.669 57.9222 25.8592C57.8464 26.0493 57.7706 26.2394 57.6949 26.3916C57.5055 26.8479 57.2782 27.3042 56.9751 27.7225C56.7099 28.1789 56.4448 28.5592 56.2175 28.9394C55.4977 30.0042 54.6264 30.9169 53.6036 31.7155C52.5808 32.5141 51.4822 33.2366 50.3457 33.807C50.0805 33.9592 49.7775 34.0732 49.4744 34.2634C49.1713 34.4535 48.8304 34.5676 48.4895 34.6817C48.1485 34.7958 47.7697 34.8718 47.353 34.9479C46.9363 34.9859 46.5196 35.0239 46.1029 34.9479C45.7619 34.9099 45.421 34.8338 45.1179 34.6817C44.8149 34.5296 44.5118 34.3394 44.2466 34.1493C43.9815 33.9211 43.7542 33.693 43.5648 33.3887C43.3753 33.0845 43.2996 32.7423 43.2617 32.4C43.2238 31.9817 43.2617 31.5634 43.3375 31.2211C43.4511 30.8408 43.5648 30.5366 43.7542 30.2324C43.9436 29.9282 44.1709 29.662 44.3603 29.4338C44.5497 29.2056 44.8149 29.0155 45.0422 28.8254C45.6104 28.407 46.1786 28.0648 46.7469 27.7606C47.3151 27.4563 47.8833 27.1521 48.4516 26.8479C49.6638 26.2775 50.9139 25.7451 52.2019 25.2507C53.4899 24.7944 54.9673 24.4521 56.5963 24.262C56.9372 23.6155 57.2403 22.893 57.4676 22.1324C57.6949 21.3718 57.8464 20.5352 57.9601 19.5845C58.0358 19.1662 58.0737 18.7099 58.1116 18.2155C58.1495 17.7211 58.1495 17.2268 58.0737 16.7704C58.0358 16.3141 57.9222 15.8958 57.7328 15.5535C57.5812 15.1732 57.3161 14.9451 56.9372 14.831C56.5963 14.7169 56.2175 14.7169 55.8008 14.831C55.3841 14.9451 55.0052 15.0592 54.7022 15.1732C50.6866 16.5423 47.5045 18.6718 45.1558 21.5239C44.9664 21.7521 44.777 22.0183 44.5497 22.2845C44.3224 22.5127 44.1709 22.7789 44.0193 23.0451C43.9057 23.2732 43.8299 23.5775 43.7542 23.8437C43.6784 24.1099 43.6405 24.4141 43.5269 24.7183C42.9965 26.6578 42.504 28.6352 42.0116 30.6887C41.5191 32.7423 41.1024 34.7578 40.7236 36.8113C40.5342 38.0282 40.3069 39.2451 40.1175 40.424C39.928 41.6028 39.7386 42.8958 39.625 44.2268C39.5871 44.8732 39.5492 45.5197 39.4735 46.2042C39.3977 46.8887 39.3977 47.5732 39.3219 48.2197C39.284 48.4859 39.284 48.7901 39.284 49.1704C39.284 49.5507 39.2462 49.893 39.2083 50.2732C39.1704 50.6535 39.0946 50.9577 39.0189 51.2239C38.9431 51.4901 38.7916 51.6803 38.64 51.7183C38.4506 51.7944 38.2612 51.7944 38.0339 51.7183C37.8066 51.6423 37.6172 51.6042 37.4278 51.5662C37.2005 51.5282 37.0111 51.4521 36.8596 51.4141C36.708 51.338 36.5565 51.262 36.4429 51.1479C36.6702 47.269 37.049 43.5042 37.5036 39.8916C37.9582 36.2789 38.5643 32.7803 39.2083 29.3197C39.5492 27.6465 39.928 25.9732 40.3069 24.338C40.7236 22.7028 41.1403 21.0676 41.6328 19.4324C41.86 18.6338 42.0873 17.8352 42.3146 17.0366C42.504 16.238 42.6935 15.4014 42.845 14.5648C42.9965 13.7662 43.148 12.9296 43.3375 12.093C43.489 11.2563 43.8299 10.5338 44.3224 9.88733C44.5497 9.88733 44.8528 9.92536 45.1558 9.96339C45.4589 10.0014 45.7619 10.0775 46.0271 10.1916C46.2923 10.2676 46.5575 10.3817 46.7469 10.5338C46.9742 10.6859 47.1257 10.838 47.1636 10.9901C47.2393 11.2183 47.2772 11.5225 47.2772 11.7887C47.2393 12.093 47.2015 12.3592 47.1257 12.7014C47.0499 13.0056 46.9363 13.3099 46.8226 13.6141C46.709 13.9183 46.5953 14.1845 46.5196 14.3747C46.3302 15.0211 46.1408 15.5916 45.9892 16.1239C45.8756 16.5803 45.7241 17.0747 45.5725 17.531ZM45.7998 31.1451C45.6104 31.3352 45.421 31.5634 45.2316 31.8296C45.0422 32.0958 44.9664 32.3239 45.0043 32.5141C45.0422 32.6662 45.1179 32.7423 45.2316 32.8183C45.3831 32.8563 45.5346 32.8944 45.6862 32.9324C45.8377 32.9704 46.065 32.9704 46.2544 32.9324C46.4438 32.8944 46.6332 32.8944 46.7848 32.8563C47.8455 32.7042 48.7546 32.438 49.4744 32.0578C50.1942 31.6394 50.8382 31.1831 51.4443 30.6887C52.2777 29.9662 53.0732 29.2056 53.793 28.407C54.5128 27.6085 55.1568 26.7338 55.725 25.7831H55.6871H55.6492L55.6113 25.8211C53.7172 26.3535 51.8989 27.0761 50.1563 27.9127C48.4895 28.7113 47.012 29.8141 45.7998 31.1451Z" fill="#7AA191"/>
<path d="M71.0672 34.1112C71.4839 33.807 71.787 33.4267 72.0143 32.9704C72.2416 32.514 72.4689 32.0577 72.6962 31.6014C73.3402 30.2324 73.9463 28.7873 74.5145 27.2662C75.0828 25.745 75.5374 24.1859 75.9919 22.5887C76.2192 22.6267 76.3708 22.7408 76.4086 22.8929C76.4465 23.045 76.4844 23.2352 76.4844 23.4253C76.5223 24.0718 76.4465 24.7563 76.2571 25.4028C76.0677 26.0493 75.8783 26.6957 75.6889 27.3042C75.3479 28.5211 74.9691 29.6619 74.5903 30.7647C74.1736 31.8676 73.719 32.9704 73.1508 34.0352C72.9235 34.4915 72.5825 34.9859 72.2037 35.4802C71.8249 36.0126 71.3324 36.2788 70.8021 36.3169C70.4232 36.3549 70.0444 36.2408 69.7035 36.0507C69.3246 35.8605 69.0595 35.6704 68.9079 35.4802C68.6428 35.138 68.4534 34.7197 68.3776 34.1873C68.3018 33.6549 68.2261 33.1225 68.2261 32.514C68.2261 31.9056 68.2639 31.2971 68.3018 30.6507C68.3397 30.0042 68.3397 29.4338 68.3397 28.9014C68.1124 29.5098 67.8851 30.1183 67.6578 30.7647C67.4305 31.4112 67.1275 32.0197 66.7486 32.5901C66.5592 32.8943 66.3319 33.1986 66.0668 33.5788C65.8016 33.9591 65.4985 34.2633 65.1197 34.5295C64.7409 34.7957 64.3621 34.9859 63.9454 35.1C63.5287 35.214 63.0741 35.138 62.6195 34.9098C62.0512 34.6436 61.6345 34.1873 61.3694 33.5788C61.1421 32.9704 60.9905 32.2859 60.9526 31.5253C60.9148 30.7647 60.9905 30.0042 61.1421 29.2436C61.2936 28.4831 61.483 27.7605 61.6724 27.1521C62.0891 25.9352 62.5437 24.8324 63.1119 23.8056C63.6802 22.7788 64.2863 21.9422 65.0439 21.2957C65.2334 21.1056 65.4985 20.9155 65.8016 20.7633C66.1046 20.6112 66.4077 20.4591 66.7108 20.4211C67.1654 20.3831 67.5442 20.4211 67.923 20.5352C68.3018 20.6493 68.6428 20.7253 69.0216 20.8014C69.0974 20.4211 69.3625 20.1549 69.7414 19.9647C70.1202 19.7746 70.5369 19.8507 70.9157 20.1549C71.1809 20.345 71.3703 20.6493 71.4461 21.0676C71.5218 21.4478 71.5976 21.9042 71.5976 22.3605C71.5976 22.8169 71.5976 23.3112 71.5218 23.8056C71.4839 24.3 71.4461 24.7563 71.4082 25.1366C71.3703 25.6309 71.3324 26.1253 71.2567 26.6197C71.2188 27.114 71.1809 27.6464 71.1051 28.1788C71.0294 29.2436 70.9157 30.3084 70.8399 31.3732C70.7642 32.4 70.8399 33.3126 71.0672 34.1112ZM67.279 22.8549C66.8623 23.5394 66.4456 24.2619 66.0289 25.0225C65.6122 25.7831 65.2334 26.6197 64.8924 27.4563C64.5515 28.2929 64.2863 29.2056 64.0969 30.1563C63.9075 31.107 63.8317 32.0577 63.8696 33.0464C64.4757 32.6662 64.9682 32.1338 65.347 31.5253C65.7258 30.9169 66.1046 30.2324 66.4835 29.5859C66.6729 29.2816 66.8623 28.9394 67.0138 28.5971C67.2032 28.2549 67.3927 27.9126 67.5442 27.5324C67.7336 27.1901 67.923 26.8478 68.1124 26.4676C68.3018 26.0873 68.4534 25.745 68.5291 25.4028C68.6806 24.8324 68.7185 24.2239 68.7185 23.6535C68.7185 23.0831 68.7564 22.4746 68.8701 21.8662C68.6807 21.714 68.4912 21.676 68.3018 21.714C68.1503 21.7521 67.9988 21.7901 67.8851 21.9042C67.7715 22.0183 67.6578 22.1704 67.5442 22.3225C67.4684 22.5507 67.3927 22.7028 67.279 22.8549Z" fill="#7AA191"/>
<path d="M92.2435 21.1056C92.3572 21.1056 92.4329 21.1436 92.4329 21.2577C92.4329 21.3718 92.4329 21.4859 92.395 21.638C92.3572 21.7901 92.3193 21.9042 92.2814 22.0183C92.2435 22.1324 92.2056 22.2084 92.1677 22.2084C91.9405 22.7408 91.5616 23.1591 91.107 23.5394C90.6525 23.9197 90.2357 24.2619 89.8569 24.5662C89.2508 25.0605 88.6447 25.5169 88.0386 25.9352C87.4325 26.3535 86.8263 26.7338 86.2202 27.114C85.955 27.7986 85.652 28.4831 85.3868 29.1676C85.1216 29.8521 84.7428 30.4605 84.3261 30.9929C83.9094 31.5633 83.4169 32.0197 82.8487 32.4C82.2805 32.7802 81.5607 33.0464 80.7652 33.1605C80.7273 34.4155 80.6894 35.6324 80.6136 36.8873C80.5379 38.1422 80.3863 39.3211 80.1212 40.5C80.0075 41.0324 79.8939 41.5647 79.7423 42.0971C79.5908 42.6295 79.4393 43.1239 79.212 43.6183C79.0226 44.1126 78.7953 44.5309 78.4922 44.9112C78.1892 45.2915 77.8861 45.5957 77.5073 45.8239C77.3179 45.976 77.0148 46.0901 76.636 46.1662C76.2572 46.2802 75.9162 46.2422 75.6132 46.0901C75.3859 46.014 75.1965 45.7859 75.0828 45.4816C74.9313 45.1394 74.8555 44.7591 74.7797 44.3408C74.704 43.9225 74.6661 43.4662 74.6282 43.0098C74.5903 42.5535 74.5903 42.1732 74.5903 41.7929C74.5903 40.8802 74.6661 40.0816 74.8176 39.3211C74.9692 38.5605 75.1207 37.876 75.2722 37.1915C75.5753 35.9746 75.9162 34.7957 76.3329 33.6549C76.7496 32.514 77.1663 31.4112 77.6588 30.3084C77.7346 30.1563 77.8103 29.9662 77.8861 29.814C77.9619 29.6619 78.0376 29.5098 78.0376 29.3957C78.0755 29.1295 78.0755 28.8253 78.0376 28.4831C77.9997 28.1408 77.9619 27.7986 77.8861 27.4943C77.8103 26.5816 77.6967 25.669 77.6209 24.6802C77.5452 23.6915 77.5073 22.7788 77.4694 21.9042C77.583 21.8281 77.7346 21.7521 77.924 21.676C78.1134 21.6 78.3028 21.5619 78.4922 21.5239C78.6816 21.4859 78.871 21.5239 79.0605 21.5619C79.2499 21.6 79.4014 21.714 79.4772 21.8281C79.5908 22.0183 79.6666 22.3225 79.6666 22.7408C79.6666 23.1211 79.7045 23.5014 79.7423 23.8056C79.7802 24.1859 79.8181 24.5662 79.856 24.8704C79.8939 25.2126 79.8939 25.5169 79.9696 25.745C80.2348 25.4788 80.5379 25.1366 80.803 24.6802C81.1061 24.2619 81.4092 23.8056 81.7501 23.3493C82.091 22.9309 82.4699 22.5126 82.8487 22.1324C83.2275 21.7521 83.6442 21.4478 84.0988 21.2957C84.3261 21.2197 84.5534 21.1436 84.8565 21.1436C85.1216 21.1056 85.3868 21.1816 85.6141 21.2957C85.8035 21.3718 85.9929 21.5239 86.2581 21.714C86.4854 21.9042 86.6748 22.0943 86.7506 22.3225C86.8263 22.5507 86.9021 22.8169 86.9021 23.0831C86.9021 23.3493 86.9021 23.6154 86.8642 23.8816C86.8263 24.1478 86.7885 24.414 86.7506 24.6802C86.7127 24.9464 86.6748 25.2126 86.6748 25.4788C87.6219 24.8324 88.5689 24.1478 89.516 23.4253C90.463 22.7028 91.448 21.9422 92.2435 21.1056ZM76.5981 44.5309C77.1663 43.9986 77.583 43.276 77.7725 42.3633C77.9619 41.4507 78.1513 40.4619 78.227 39.3971C78.3028 38.3324 78.3786 37.2295 78.3786 36.0887C78.4165 34.9478 78.3786 33.807 78.3028 32.7422L78.2649 32.7042C77.8861 33.4647 77.5073 34.3014 77.1285 35.2521C76.7496 36.2028 76.4466 37.2295 76.2193 38.2943C75.992 39.3591 75.8783 40.4239 75.9162 41.4887C75.9541 42.5915 76.1814 43.6183 76.5981 44.5309ZM85.0837 22.1324L84.9701 22.2084C84.2882 22.7028 83.6442 23.3873 82.9623 24.2239C82.2805 25.0605 81.7501 25.8971 81.2955 26.6957C81.0303 27.1521 80.803 27.6084 80.5757 28.0647C80.3485 28.5211 80.3485 29.0535 80.5 29.6619C81.1061 29.0155 81.8259 28.407 82.6214 27.8746C83.4169 27.3422 84.2503 26.8478 85.1216 26.3915C85.1974 26.0873 85.2732 25.745 85.311 25.3647C85.3489 24.9845 85.3868 24.6042 85.3868 24.2239C85.3868 23.8436 85.3489 23.4633 85.311 23.0831C85.2732 22.7408 85.1974 22.3985 85.0837 22.1324ZM82.3183 29.6619C82.1289 29.814 81.9774 29.9281 81.8637 30.0802C81.7122 30.2324 81.5607 30.3845 81.4092 30.5366C81.3713 30.6126 81.2955 30.6887 81.2197 30.7647C81.144 30.8408 81.0682 30.9549 80.9925 31.069C80.9167 31.1831 80.8788 31.2971 80.8409 31.4112C80.803 31.5253 80.803 31.6394 80.8409 31.7155C80.9167 31.9056 81.0682 31.9816 81.2576 31.9816C81.447 31.9816 81.6743 31.9436 81.8637 31.8676C82.1668 31.7155 82.432 31.4873 82.735 31.1831C83.0002 30.8788 83.2654 30.4985 83.4927 30.1183C83.72 29.738 83.9473 29.3577 84.0988 28.9394C84.2503 28.5211 84.4019 28.2169 84.5155 27.9507C84.1367 28.1788 83.7579 28.445 83.379 28.7112C83.0002 29.0535 82.6593 29.3197 82.3183 29.6619Z" fill="#7AA191"/>
<path d="M93.38 35.7464C93.7589 35.6704 94.024 35.5183 94.2892 35.2521C94.5165 34.9859 94.7438 34.7197 94.9332 34.4915C95.5772 33.7309 96.1455 32.9704 96.7137 32.1337C97.2819 31.2971 97.8123 30.4605 98.3805 29.6239C98.9488 28.7873 99.4412 27.9126 100.009 27.076C100.578 26.2394 101.108 25.4028 101.714 24.6422C101.904 24.414 102.093 24.1478 102.32 23.8816C102.548 23.6154 102.851 23.5014 103.192 23.5014C103.229 23.6915 103.192 23.8436 103.078 23.9957C102.964 24.1478 102.851 24.2999 102.775 24.414C101.828 26.0492 100.919 27.6464 100.085 29.2816C99.2518 30.8788 98.3426 32.5521 97.3577 34.2253C97.0546 34.7957 96.6758 35.3661 96.297 35.9366C95.8803 36.507 95.4257 36.9253 94.8575 37.1915C94.3271 37.4197 93.7967 37.4197 93.2285 37.2295C92.6603 37.0394 92.2436 36.7732 91.9784 36.469C91.6375 36.0507 91.4102 35.5563 91.3344 34.9098C91.2207 34.2633 91.1829 33.6168 91.2207 32.9323C91.2586 32.2478 91.3344 31.5253 91.448 30.8408C91.5617 30.1183 91.6753 29.4718 91.7511 28.9014C91.9784 27.3422 92.3193 25.783 92.736 24.2619C93.1527 22.7408 93.6452 21.3337 94.2513 20.0408C94.4029 19.6985 94.5923 19.3563 94.8196 18.976C95.0469 18.5957 95.2742 18.2154 95.5393 17.9112C95.8045 17.569 96.1076 17.2647 96.4485 17.0366C96.7895 16.8084 97.1304 16.6563 97.5092 16.6183C98.0017 16.5422 98.4184 16.6183 98.7972 16.8084C99.176 16.9985 99.517 17.2267 99.82 17.4549C100.009 17.607 100.275 17.7591 100.578 17.9112C100.881 18.1014 101.032 18.2915 101.108 18.4436C101.184 18.6337 101.222 18.8619 101.184 19.1661C101.146 19.4323 101.07 19.6985 100.994 19.9647C100.881 20.2309 100.767 20.4971 100.616 20.7253C100.464 20.9535 100.35 21.1816 100.275 21.3337C99.7443 22.1323 99.2139 22.8929 98.6457 23.6154C98.0775 24.338 97.4713 25.0225 96.8273 25.669C96.7137 25.783 96.5622 25.8971 96.4106 26.0873C96.2591 26.2394 96.0318 26.4295 95.8424 26.5816C95.653 26.6957 95.4636 26.8098 95.2363 26.9619C95.009 27.114 94.8575 27.2281 94.7438 27.3802C94.5923 27.5704 94.5165 27.8746 94.4029 28.2929C94.3271 28.6732 94.2135 29.0535 94.1377 29.3577C93.9483 30.0802 93.7967 30.7647 93.6831 31.4492C93.5695 32.1337 93.4558 32.8563 93.3422 33.6549C93.3043 34.0352 93.2664 34.3774 93.1906 34.7577C93.1149 35.0619 93.1906 35.4422 93.38 35.7464ZM98.873 18.6337C98.1532 19.2042 97.5471 20.0028 97.0167 21.0295C96.4864 22.0563 96.0318 23.045 95.6909 24.0337C96.4864 23.3873 97.2062 22.6267 97.8502 21.7521C98.4942 20.8774 99.0624 19.9647 99.517 18.8999C99.4791 18.7478 99.3655 18.6718 99.2518 18.5577C99.1382 18.5197 98.9866 18.5197 98.873 18.6337Z" fill="#7AA191"/>
<path d="M105.919 35.5183C106.222 35.3662 106.449 35.1761 106.639 34.9099C106.828 34.6437 107.018 34.3775 107.207 34.1113C108.268 32.5521 109.291 30.9169 110.276 29.2056C111.223 27.4944 112.208 25.7831 113.155 24.0338C113.23 23.9197 113.306 23.8056 113.382 23.6155C113.458 23.4634 113.533 23.3113 113.647 23.1972C113.761 23.0831 113.874 22.969 114.026 22.893C114.177 22.8169 114.329 22.8169 114.518 22.8169C114.594 23.007 114.594 23.1592 114.48 23.3493C114.367 23.5014 114.291 23.6535 114.215 23.8056C113.988 24.3 113.723 24.7944 113.458 25.2507C113.192 25.707 112.927 26.1634 112.662 26.6197C111.791 28.1789 110.957 29.738 110.162 31.3352C109.366 32.9324 108.457 34.4535 107.434 35.8986C107.283 36.0887 107.131 36.3169 106.98 36.507C106.828 36.6972 106.639 36.8873 106.412 37.0014C106.222 37.1535 105.995 37.2296 105.768 37.2676C105.54 37.3056 105.275 37.2296 104.972 37.0775C104.404 36.7732 104.025 36.3169 103.76 35.6704C103.532 35.0239 103.381 34.3014 103.305 33.5028C103.267 32.7042 103.267 31.8676 103.343 30.993C103.419 30.1183 103.532 29.3197 103.646 28.5592C104.063 25.8972 104.517 23.3873 105.048 20.9916C105.578 18.5958 106.26 16.2761 107.093 14.0324C107.283 13.538 107.472 13.0056 107.7 12.4732C107.927 11.9408 108.192 11.4085 108.457 10.9141C108.722 10.4197 109.063 9.92535 109.404 9.50704C109.745 9.08873 110.124 8.74648 110.541 8.48028C110.844 8.29014 111.26 8.1 111.715 7.98592C112.17 7.87183 112.662 7.79578 113.155 7.79578C113.647 7.79578 114.102 7.87183 114.48 8.02395C114.897 8.17606 115.2 8.44226 115.39 8.78451C115.579 9.16479 115.655 9.54507 115.655 10.0394C115.693 10.9141 115.541 11.7507 115.238 12.5873C114.935 13.3859 114.632 14.1465 114.367 14.793C113.647 16.5803 112.814 18.2535 111.867 19.8887C110.92 21.4859 109.859 22.931 108.647 24.1099C108.533 24.2239 108.419 24.338 108.268 24.4521C108.116 24.5662 108.003 24.6803 107.813 24.7944C107.7 24.8704 107.548 24.9845 107.321 25.0986C107.093 25.2127 106.98 25.3268 106.942 25.4028C106.866 25.5169 106.828 25.707 106.79 25.9732C106.752 26.2394 106.752 26.4676 106.677 26.6197C106.487 27.6845 106.336 28.7113 106.146 29.7C105.995 30.6887 105.843 31.7535 105.73 32.8183C105.692 33.2747 105.654 33.731 105.616 34.1493C105.654 34.7197 105.73 35.138 105.919 35.5183ZM113.268 14.5648C113.496 13.9944 113.761 13.3099 114.026 12.6254C114.291 11.9028 114.367 11.1423 114.329 10.3056C114.291 10.0014 114.253 9.73521 114.102 9.39296C113.988 9.08873 113.799 8.89859 113.533 8.86056C113.382 8.82254 113.268 8.89859 113.117 9.01268C112.965 9.12676 112.814 9.24085 112.7 9.39296C112.548 9.54507 112.435 9.69718 112.321 9.8493C112.208 10.0014 112.094 10.1535 112.018 10.2296C111.45 11.0662 110.92 11.9408 110.503 12.8535C110.048 13.7282 109.669 14.6789 109.291 15.5916C108.76 16.9986 108.344 18.4817 108.078 19.9648C107.813 21.4479 107.51 22.931 107.207 24.3761C108.344 23.0831 109.442 21.6 110.541 19.8507C111.564 18.1394 112.473 16.3901 113.268 14.5648Z" fill="#7AA191"/>
<path d="M126.527 23.0451C126.338 23.2732 126.035 23.5014 125.618 23.6155C125.201 23.7296 124.822 23.8817 124.406 23.9958C123.875 24.1479 123.345 24.262 122.739 24.338C122.133 24.4521 121.564 24.4141 121.034 24.262C121.451 25.5549 121.754 26.962 121.867 28.4831C121.981 30.0042 121.905 31.4493 121.564 32.7803C121.299 34.0352 120.845 35.2141 120.239 36.2789C119.935 36.8113 119.595 37.3056 119.216 37.762C118.837 38.2183 118.458 38.6366 118.079 38.9408C117.738 39.169 117.359 39.3591 116.943 39.4352C116.526 39.5113 116.109 39.5113 115.693 39.4352C115.276 39.3591 114.935 39.2451 114.594 39.0169C114.253 38.7887 113.988 38.5606 113.836 38.2183C113.571 37.7239 113.382 37.1155 113.306 36.431C113.23 35.7465 113.192 35.0239 113.23 34.3014C113.268 33.5408 113.344 32.8183 113.42 32.0958C113.533 31.3732 113.609 30.7648 113.761 30.1944C113.95 29.1296 114.177 28.1408 114.367 27.3422C114.556 26.5437 114.821 25.631 115.124 24.6803C115.2 24.376 115.314 24.1098 115.39 23.7676C115.465 23.4634 115.579 23.1972 115.693 22.931C115.806 22.6648 115.996 22.4366 116.185 22.2465C116.375 22.0563 116.64 21.9422 116.943 21.9042C117.17 21.8662 117.397 21.8662 117.625 21.9803C117.814 22.0563 118.041 22.1324 118.307 22.1704C118.382 22.1704 118.458 22.1704 118.534 22.1324C118.61 22.0944 118.685 22.0944 118.761 22.0944C118.875 22.0944 118.988 22.1324 119.102 22.1704C119.216 22.2084 119.329 22.2465 119.443 22.3225C119.557 22.3606 119.67 22.3986 119.822 22.4366C119.973 22.4746 120.049 22.4746 120.125 22.5507C120.239 22.5887 120.314 22.6648 120.39 22.8169C120.428 22.931 120.542 23.0451 120.655 23.1211C120.807 23.1972 121.034 23.2732 121.261 23.3113C121.527 23.3493 121.792 23.3873 122.095 23.3873C122.398 23.3873 122.663 23.3873 122.966 23.3873C123.231 23.3873 123.496 23.3873 123.724 23.3873C124.292 23.3493 124.784 23.3113 125.239 23.2732C125.58 23.1591 126.035 23.1211 126.527 23.0451ZM117.928 26.3915C117.7 27.076 117.435 27.7986 117.17 28.5972C116.943 29.3958 116.715 30.1944 116.488 31.031C116.299 31.8676 116.109 32.7042 115.996 33.5408C115.882 34.3775 115.806 35.2141 115.806 36.0507C115.806 36.431 115.806 36.7352 115.844 37.0775C115.882 37.3817 115.996 37.6859 116.147 37.9901C116.64 37.8 117.056 37.4197 117.359 36.9253C117.663 36.431 117.966 35.8986 118.193 35.3662C118.723 34.2634 119.14 33.0845 119.481 31.8296C119.822 30.5746 120.011 29.1676 120.011 27.6084C120.011 26.8479 119.973 26.1253 119.86 25.4408C119.746 24.7183 119.519 24.1098 119.216 23.6155H119.14C118.913 23.9197 118.647 24.338 118.458 24.8704C118.307 25.3267 118.117 25.8591 117.928 26.3915Z" fill="#7AA191"/>
<path d="M130.467 12.4352C131.338 12.2831 132.323 12.169 133.346 12.0929C134.407 11.9788 135.467 11.9408 136.566 11.9028C137.665 11.8648 138.725 11.9028 139.824 11.9408C140.922 12.0169 141.907 12.131 142.854 12.3211C143.233 12.3972 143.574 12.4732 143.991 12.5493C144.37 12.6253 144.749 12.7394 145.127 12.8915C145.506 13.0436 145.847 13.1957 146.15 13.3479C146.453 13.538 146.681 13.7662 146.794 14.0324C146.984 14.4126 147.059 14.7929 147.059 15.2493C147.059 15.7056 146.908 16.0479 146.643 16.3141C146.377 16.5803 145.999 16.6943 145.506 16.7324C145.014 16.7704 144.597 16.6943 144.218 16.5422C144.256 16.3521 144.294 16.1619 144.408 16.0479C144.521 15.8957 144.635 15.7817 144.786 15.6676C144.938 15.5535 145.089 15.4394 145.241 15.3253C145.393 15.2112 145.544 15.0972 145.658 14.945C144.749 14.3746 143.688 13.9943 142.4 13.7662C141.112 13.538 139.786 13.4239 138.422 13.4239C137.021 13.4239 135.619 13.5 134.217 13.6521C132.816 13.8042 131.528 13.9943 130.353 14.1845C130.126 16.0479 129.747 17.8352 129.292 19.5845C128.838 21.3338 128.459 23.1211 128.156 24.9465C127.967 25.8972 127.815 26.8098 127.701 27.7225C127.55 28.6352 127.436 29.5479 127.285 30.4986C127.133 31.4112 126.982 32.3619 126.83 33.2746C126.679 34.2253 126.603 35.176 126.679 36.1648C126.868 36.1267 127.02 36.0507 127.095 35.8605C127.171 35.6704 127.247 35.5183 127.361 35.4042C127.929 34.4535 128.459 33.5028 129.027 32.476C129.596 31.4493 130.088 30.4986 130.656 29.4718C131.187 28.4831 131.755 27.4943 132.323 26.5056C132.891 25.5169 133.46 24.5662 134.104 23.6535C134.293 23.3873 134.482 23.1211 134.71 22.8549C134.937 22.5887 135.24 22.4366 135.619 22.3986C134.975 23.6915 134.331 24.9845 133.725 26.2774C133.119 27.5704 132.513 28.9394 131.906 30.3465C131.452 31.3732 131.035 32.3619 130.581 33.3887C130.164 34.4155 129.671 35.4042 129.179 36.3549C128.952 36.8112 128.648 37.2676 128.345 37.7619C128.042 38.2563 127.664 38.5986 127.209 38.8267C126.906 38.9788 126.603 39.0169 126.3 38.9788C125.997 38.9408 125.732 38.8267 125.504 38.6746C125.277 38.5225 125.05 38.2943 124.898 38.0281C124.747 37.7619 124.595 37.4958 124.557 37.2296C124.444 36.7732 124.406 36.2788 124.406 35.7465C124.406 35.2141 124.444 34.7197 124.481 34.1873C124.519 33.6549 124.595 33.1605 124.671 32.6662C124.747 32.1718 124.822 31.6774 124.898 31.2211C125.277 28.331 125.732 25.4788 126.3 22.7408C126.868 20.0028 127.361 17.2267 127.739 14.4887C126.83 14.5648 125.845 14.7169 124.785 14.945C123.724 15.1732 122.663 15.3253 121.527 15.5155C120.39 15.7056 119.292 15.7436 118.155 15.7817C117.019 15.8197 115.92 15.6676 114.821 15.4014C114.215 15.2493 113.609 15.0211 113.003 14.7549C112.397 14.4887 111.98 14.1084 111.715 13.6521C111.639 13.576 111.601 13.4239 111.564 13.2718C111.526 13.1197 111.488 12.9295 111.488 12.7774C111.488 12.6253 111.488 12.4352 111.526 12.2831C111.564 12.131 111.677 12.0169 111.791 11.9408C111.905 12.0169 111.98 12.169 111.98 12.3591C111.98 12.5493 112.018 12.7014 112.094 12.8155C112.17 13.0436 112.359 13.2338 112.586 13.3859C112.814 13.538 113.117 13.6521 113.42 13.7281C113.723 13.8042 114.064 13.8803 114.443 13.9563C114.821 13.9943 115.124 14.0324 115.465 14.0704C116.602 14.1845 117.701 14.1845 118.761 14.1084C119.822 14.0324 120.883 13.8803 121.905 13.7281C122.928 13.576 123.951 13.3859 124.936 13.1957C125.921 13.0056 126.906 12.8915 127.853 12.8155C127.929 12.5873 127.929 12.3211 127.891 12.0169C127.853 11.7126 127.853 11.4084 127.853 11.1422C127.853 10.876 127.929 10.6479 128.042 10.4957C128.156 10.3436 128.383 10.2676 128.686 10.2676C128.914 10.3056 129.141 10.3436 129.406 10.4577C129.633 10.5718 129.861 10.6859 130.05 10.876C130.24 11.0662 130.391 11.2563 130.467 11.5225C130.505 11.7887 130.505 12.0929 130.467 12.4352Z" fill="#7AA191"/>
<path d="M139.407 12.4352C140.278 12.2831 141.263 12.169 142.286 12.0929C143.347 11.9788 144.408 11.9408 145.506 11.9028C146.605 11.8648 147.665 11.9028 148.764 11.9408C149.863 12.0169 150.848 12.131 151.795 12.3211C152.173 12.3972 152.514 12.4732 152.931 12.5493C153.31 12.6253 153.689 12.7394 154.068 12.8915C154.446 13.0436 154.787 13.1957 155.09 13.3479C155.393 13.538 155.621 13.7662 155.734 14.0324C155.924 14.4126 156 14.7929 156 15.2493C156 15.7056 155.848 16.0479 155.583 16.3141C155.318 16.5803 154.939 16.6943 154.446 16.7324C153.954 16.7704 153.537 16.6943 153.158 16.5422C153.196 16.3521 153.234 16.1619 153.348 16.0479C153.461 15.8957 153.575 15.7817 153.727 15.6676C153.878 15.5535 154.03 15.4394 154.181 15.3253C154.333 15.2112 154.484 15.0972 154.598 14.945C153.689 14.3746 152.628 13.9943 151.34 13.7662C150.052 13.538 148.726 13.4239 147.362 13.4239C145.961 13.4239 144.559 13.5 143.157 13.6521C141.756 13.8042 140.468 13.9943 139.293 14.1845C139.066 16.0479 138.687 17.8352 138.233 19.5845C137.778 21.3338 137.399 23.1211 137.096 24.9465C136.907 25.8972 136.755 26.8098 136.642 27.7225C136.49 28.6352 136.376 29.5479 136.225 30.4986C136.073 31.4112 135.922 32.3619 135.77 33.2746C135.619 34.2253 135.543 35.176 135.619 36.1648C135.808 36.1267 135.96 36.0507 136.036 35.8605C136.111 35.6704 136.187 35.5183 136.301 35.4042C136.869 34.4535 137.399 33.5028 137.968 32.476C138.536 31.4493 139.028 30.4986 139.596 29.4718C140.127 28.4831 140.695 27.4943 141.263 26.5056C141.832 25.5169 142.4 24.5662 143.044 23.6535C143.233 23.3873 143.423 23.1211 143.65 22.8549C143.877 22.5887 144.18 22.4366 144.559 22.3986C143.915 23.6915 143.271 24.9845 142.665 26.2774C142.059 27.5704 141.453 28.9394 140.847 30.3465C140.392 31.3732 139.975 32.3619 139.521 33.3887C139.104 34.4155 138.612 35.4042 138.119 36.3549C137.892 36.8112 137.589 37.2676 137.286 37.7619C136.983 38.2563 136.604 38.5986 136.149 38.8267C135.846 38.9788 135.543 39.0169 135.24 38.9788C134.937 38.9408 134.672 38.8267 134.444 38.6746C134.217 38.5225 133.99 38.2943 133.838 38.0281C133.687 37.7619 133.535 37.4958 133.497 37.2296C133.384 36.7732 133.346 36.2788 133.346 35.7465C133.346 35.2141 133.384 34.7197 133.422 34.1873C133.46 33.6549 133.535 33.1605 133.611 32.6662C133.687 32.1718 133.763 31.6774 133.838 31.2211C134.217 28.331 134.672 25.4788 135.24 22.7408C135.808 20.0028 136.301 17.2267 136.68 14.4887C135.77 14.5648 134.785 14.7169 133.725 14.945C132.664 15.1732 131.603 15.3253 130.467 15.5155C129.33 15.7056 128.232 15.7436 127.095 15.7817C125.959 15.8197 124.86 15.6676 123.762 15.4014C123.156 15.2493 122.549 15.0211 121.943 14.7549C121.337 14.4887 120.92 14.1084 120.655 13.6521C120.58 13.576 120.542 13.4239 120.504 13.2718C120.466 13.1197 120.428 12.9295 120.428 12.7774C120.428 12.6253 120.428 12.4352 120.466 12.2831C120.504 12.131 120.617 12.0169 120.731 11.9408C120.845 12.0169 120.92 12.169 120.92 12.3591C120.92 12.5493 120.958 12.7014 121.034 12.8155C121.11 13.0436 121.299 13.2338 121.527 13.3859C121.754 13.538 122.057 13.6521 122.36 13.7281C122.663 13.8042 123.004 13.8803 123.383 13.9563C123.762 13.9943 124.065 14.0324 124.406 14.0704C125.542 14.1845 126.641 14.1845 127.701 14.1084C128.762 14.0324 129.823 13.8803 130.846 13.7281C131.868 13.576 132.891 13.3859 133.876 13.1957C134.861 13.0056 135.846 12.8915 136.793 12.8155C136.869 12.5873 136.869 12.3211 136.831 12.0169C136.793 11.7126 136.793 11.4084 136.793 11.1422C136.793 10.876 136.869 10.6479 136.983 10.4957C137.096 10.3436 137.324 10.2676 137.627 10.2676C137.854 10.3056 138.081 10.3436 138.346 10.4577C138.574 10.5718 138.801 10.6859 138.99 10.876C139.18 11.0662 139.331 11.2563 139.407 11.5225C139.445 11.7887 139.445 12.0929 139.407 12.4352Z" fill="#7AA191"/>
<path d="M145.733 35.7464C146.112 35.6704 146.377 35.5183 146.643 35.2521C146.87 34.9859 147.097 34.7197 147.287 34.4915C147.931 33.7309 148.499 32.9704 149.067 32.1337C149.635 31.2971 150.166 30.4605 150.734 29.6239C151.302 28.7873 151.795 27.9126 152.363 27.076C152.931 26.2394 153.461 25.4028 154.068 24.6422C154.257 24.414 154.446 24.1478 154.674 23.8816C154.901 23.6154 155.204 23.5014 155.545 23.5014C155.583 23.6915 155.545 23.8436 155.431 23.9957C155.318 24.1478 155.204 24.2999 155.128 24.414C154.181 26.0492 153.272 27.6464 152.439 29.2816C151.605 30.8788 150.696 32.5521 149.711 34.2253C149.408 34.7957 149.029 35.3661 148.65 35.9366C148.234 36.507 147.779 36.9253 147.211 37.1915C146.68 37.4197 146.15 37.4197 145.582 37.2295C145.014 37.0394 144.597 36.7732 144.332 36.469C143.991 36.0507 143.764 35.5563 143.688 34.9098C143.574 34.2633 143.536 33.6168 143.574 32.9323C143.612 32.2478 143.688 31.5253 143.801 30.8408C143.915 30.1183 144.029 29.4718 144.104 28.9014C144.332 27.3422 144.673 25.783 145.089 24.2619C145.506 22.7408 145.999 21.3337 146.605 20.0408C146.756 19.6985 146.946 19.3563 147.173 18.976C147.4 18.5957 147.628 18.2154 147.893 17.9112C148.158 17.569 148.461 17.2647 148.802 17.0366C149.143 16.8084 149.484 16.6563 149.863 16.6183C150.355 16.5422 150.772 16.6183 151.151 16.8084C151.529 16.9985 151.87 17.2267 152.173 17.4549C152.363 17.607 152.628 17.7591 152.931 17.9112C153.234 18.1014 153.386 18.2915 153.461 18.4436C153.537 18.6337 153.575 18.8619 153.537 19.1661C153.499 19.4323 153.424 19.6985 153.348 19.9647C153.234 20.2309 153.12 20.4971 152.969 20.7253C152.817 20.9535 152.704 21.1816 152.628 21.3337C152.098 22.1323 151.567 22.8929 150.999 23.6154C150.431 24.338 149.825 25.0225 149.181 25.669C149.067 25.783 148.916 25.8971 148.764 26.0873C148.613 26.2394 148.385 26.4295 148.196 26.5816C148.006 26.6957 147.817 26.8098 147.59 26.9619C147.362 27.114 147.211 27.2281 147.097 27.3802C146.946 27.5704 146.87 27.8746 146.756 28.2929C146.68 28.6732 146.567 29.0535 146.491 29.3577C146.302 30.0802 146.15 30.7647 146.036 31.4492C145.923 32.1337 145.809 32.8563 145.696 33.6549C145.658 34.0352 145.62 34.3774 145.544 34.7577C145.468 35.0619 145.544 35.4422 145.733 35.7464ZM151.226 18.6337C150.507 19.2042 149.9 20.0028 149.37 21.0295C148.84 22.0563 148.385 23.045 148.044 24.0337C148.84 23.3873 149.56 22.6267 150.204 21.7521C150.848 20.8774 151.416 19.9647 151.87 18.8999C151.832 18.7478 151.719 18.6718 151.605 18.5577C151.492 18.5197 151.34 18.5197 151.226 18.6337Z" fill="#7AA191"/>
</svg>
