<svg width="16" height="16" viewBox="0 0 16 16" fill="none" xmlns="http://www.w3.org/2000/svg">
<path d="M15.7789 14.6104L12.8178 11.6526C15.0833 8.83375 14.8647 4.66501 12.2813 2.10422C10.9299 0.754342 9.12153 0 7.19389 0C5.26624 0 3.47771 0.754342 2.1065 2.10422C0.755159 3.45409 0 5.26055 0 7.1861C0 9.11166 0.755159 10.8983 2.1065 12.268C3.45784 13.6179 5.26624 14.3722 7.19389 14.3722C8.82344 14.3722 10.4133 13.8164 11.6851 12.804L14.6461 15.7618C14.8051 15.9206 15.0038 16 15.2026 16C15.4212 16 15.6199 15.9206 15.759 15.7618C16.0769 15.4243 16.0769 14.928 15.7789 14.6104ZM12.798 7.16625C12.798 8.65509 12.2217 10.0645 11.1684 11.1166C10.1152 12.1687 8.70421 12.7444 7.21376 12.7444C5.72331 12.7444 4.31236 12.1687 3.25911 11.1166C2.20586 10.0645 1.62955 8.65509 1.62955 7.16625C1.62955 5.67742 2.20586 4.26799 3.25911 3.21588C4.31236 2.16377 5.72331 1.58809 7.21376 1.58809C8.70421 1.58809 10.1152 2.16377 11.1684 3.21588C12.2217 4.26799 12.798 5.67742 12.798 7.16625Z" fill="#7AA191"/>
</svg>
